<svg width="24" height="24" viewBox="0 0 24 24" fill="none" xmlns="http://www.w3.org/2000/svg">
<rect width="24" height="24" rx="4.6875" fill="black"/>
<path d="M11.2406 20.9063L11.584 13.841L9.22897 20.5137L7.85517 19.974L10.8972 13.5466L6.18698 18.8456L5.10757 17.7661L10.4065 13.056L3.9791 16.098L3.43939 14.7242L10.1121 12.3691L3.04688 12.7125V11.2406L10.1121 11.6331L3.43939 9.22897L3.9791 7.90423L10.4065 10.9462L5.10757 6.18698L6.18698 5.15664L10.8972 10.4065L7.85517 4.02816L9.22897 3.43939L11.584 10.1612L11.2406 3.04688H12.7125L12.32 10.1121L14.7242 3.43939L16.0489 4.02816L13.0069 10.4065L17.7661 5.15664L18.7965 6.18698L13.5466 10.9462L19.925 7.90423L20.5137 9.22897L13.7919 11.6331L20.9063 11.2406V12.7125L13.7919 12.3691L20.5137 14.7242L19.925 16.098L13.5466 13.056L18.7965 17.7661L17.7661 18.8456L13.0069 13.5466L16.0489 19.974L14.7242 20.5137L12.32 13.841L12.7125 20.9063H11.2406Z" fill="white"/>
</svg>
